<?xml version="1.0" standalone="no"?>
<!DOCTYPE svg PUBLIC "-//W3C//DTD SVG 20010904//EN"
 "http://www.w3.org/TR/2001/REC-SVG-20010904/DTD/svg10.dtd">
<svg version="1.0" xmlns="http://www.w3.org/2000/svg"
 width="990.000000pt" height="990.000000pt" viewBox="0 0 990.000000 990.000000"
 preserveAspectRatio="xMidYMid meet">
<metadata>
Created by potrace 1.11, written by Peter Selinger 2001-2013
</metadata>
<g transform="translate(0.000000,990.000000) scale(0.100000,-0.100000)"
fill="#000000" stroke="none">
<path d="M4725 9500 c-394 -17 -716 -75 -1130 -205 -289 -91 -573 -215 -845
-370 -916 -521 -1616 -1342 -2004 -2350 -43 -113 -126 -383 -165 -540 -169
-677 -169 -1496 0 -2168 212 -847 614 -1563 1209 -2157 281 -282 574 -509 903
-701 422 -248 865 -419 1351 -524 546 -117 1251 -119 1791 -4 884 187 1650
602 2280 1234 601 603 1006 1332 1210 2180 96 397 135 827 115 1267 -20 437
-69 719 -201 1156 -302 1003 -981 1899 -1884 2485 -533 345 -1234 599 -1859
672 -111 13 -541 37 -586 33 -8 -1 -91 -4 -185 -8z m660 -670 c446 -41 849
-171 1224 -395 184 -110 327 -220 471 -365 321 -320 527 -694 624 -1131 31
-141 56 -344 56 -461 l0 -88 -363 0 -364 0 -6 119 c-26 471 -173 852 -465
1201 -170 204 -381 364 -667 505 -338 168 -785 270 -1065 244 -474 -43 -905
-182 -1213 -391 -150 -102 -319 -265 -416 -401 -60 -86 -145 -264 -176 -372
-78 -272 -86 -588 -19 -835 71 -269 228 -474 501 -655 314 -210 689 -330 1798
-576 648 -143 985 -231 1300 -339 150 -51 375 -161 479 -234 229 -160 421
-373 516 -571 109 -229 160 -484 160 -800 0 -345 -61 -619 -200 -900 -78 -156
-168 -281 -309 -427 -187 -194 -348 -312 -596 -436 -294 -146 -631 -244 -1031
-299 -191 -26 -1042 -26 -1254 0 -908 112 -1600 503 -2017 1139 -74 112 -187
343 -233 473 -93 265 -160 644 -160 903 l0 72 363 0 364 0 11 -178 c23 -338
70 -540 190 -812 207 -471 603 -843 1112 -1045 412 -163 887 -231 1265 -180
759 102 1367 481 1620 1010 105 220 153 480 142 760 -18 429 -143 694 -433
921 -285 223 -606 329 -1709 565 -618 132 -962 221 -1314 339 -385 130 -683
303 -923 538 -128 125 -192 210 -261 347 -158 314 -198 730 -112 1161 158 784
826 1362 1780 1539 126 23 352 51 465 58 139 8 767 6 865 -3z"/>
</g>
</svg>
